<?xml version="1.0" encoding="UTF-8" standalone="no"?><!DOCTYPE svg PUBLIC "-//W3C//DTD SVG 1.1//EN" "http://www.w3.org/Graphics/SVG/1.1/DTD/svg11.dtd"><svg width="100%" height="100%" viewBox="0 0 3432 471" version="1.1" xmlns="http://www.w3.org/2000/svg" xmlns:xlink="http://www.w3.org/1999/xlink" xml:space="preserve" xmlns:serif="http://www.serif.com/" style="fill-rule:evenodd;clip-rule:evenodd;stroke-linejoin:round;stroke-miterlimit:2;"><g><path d="M42.754,397.001c-16.966,0 -28.333,-0.933 -34.101,-2.799c-5.769,-1.867 -8.653,-5.005 -8.653,-9.416l0,-316.583c0,-7.465 9.84,-14.845 29.521,-22.141c19.68,-7.295 41.736,-10.943 66.166,-10.943c21.717,0 35.968,4.581 42.754,13.743c2.376,3.393 3.563,6.786 3.563,10.179l0,225.476c41.397,-2.714 72.614,-4.071 93.652,-4.071c7.125,0 10.688,11.282 10.688,33.846c0,22.565 -1.527,41.991 -4.581,58.278c-3.053,16.287 -7.125,24.431 -12.215,24.431l-186.794,0Z" style="fill:#fff;fill-rule:nonzero;"/><path d="M399.037,133.861l0,250.925c0,3.732 -9.756,6.701 -29.266,8.907c-19.511,2.205 -39.531,3.308 -60.059,3.308c-20.529,0 -33.762,-0.933 -39.7,-2.799c-5.939,-1.867 -8.908,-5.005 -8.908,-9.416l0,-241.764c0,-7.465 9.586,-14.845 28.758,-22.14c19.171,-7.296 40.124,-10.943 62.858,-10.943c30.878,0 46.317,7.974 46.317,23.922Zm-69.221,-133.861c22.395,0 39.955,3.308 52.679,9.925c12.725,6.617 19.087,18.578 19.087,35.883c0,30.538 -23.752,45.808 -71.257,45.808c-47.504,0 -71.256,-15.27 -71.256,-45.808c0,-30.539 23.582,-45.808 70.747,-45.808Z" style="fill:#fff;fill-rule:nonzero;"/><path d="M570.562,388.857c-4.412,3.054 -11.113,5.854 -20.105,8.398c-8.992,2.545 -20.783,3.818 -35.374,3.818c-14.59,0 -28.333,-2.8 -41.227,-8.398c-12.894,-5.599 -22.904,-12.64 -30.029,-21.123c-7.126,-8.483 -12.894,-19.341 -17.305,-32.574c-6.448,-20.359 -9.671,-45.978 -9.671,-76.856c0,-58.701 13.488,-100.862 40.464,-126.48c26.975,-25.618 70.662,-38.428 131.061,-38.428c33.592,0 57.684,1.188 72.274,3.563c14.591,2.375 26.297,4.581 35.12,6.617c18.662,4.411 27.993,11.537 27.993,21.377l0,329.816c0,3.732 -9.416,6.701 -28.248,8.907c-18.832,2.206 -41.821,3.308 -68.966,3.308c-27.145,0 -40.718,-4.071 -40.718,-12.215l0,-57.514l6.108,-35.12l-4.072,0c0,2.715 -1.697,6.447 -5.09,11.198c-3.393,4.75 -7.465,8.652 -12.215,11.706Zm0.509,-217.841c-10.859,0 -16.288,25.958 -16.288,77.873c0,51.916 5.769,77.873 17.306,77.873c2.714,0 5.768,-0.848 9.161,-2.545c3.393,-1.696 5.09,-4.071 5.09,-7.125l0,-144.04c-2.375,-1.358 -7.465,-2.036 -15.269,-2.036Z" style="fill:#fff;fill-rule:nonzero;"/><path d="M846.426,401.582c-38.003,0 -64.555,-9.84 -79.654,-29.521c-15.1,-19.68 -22.65,-53.951 -22.65,-102.813l0,-138.441c0,-6.787 10.01,-13.318 30.03,-19.596c20.02,-6.277 41.057,-9.416 63.113,-9.416c29.52,0 44.281,7.635 44.281,22.904l0,129.28c0,25.788 1.018,44.535 3.053,56.242c2.036,11.706 7.126,17.559 15.27,17.559c10.858,0 16.287,-4.581 16.287,-13.742l0,-183.231c0,-7.126 10.519,-13.743 31.556,-19.85c21.038,-6.108 43.942,-9.162 68.712,-9.162c24.77,0 37.155,6.617 37.155,19.85l0,262.123c0,4.75 -10.688,8.143 -32.065,10.179c-21.377,2.036 -42.415,3.054 -63.113,3.054c-20.698,0 -31.217,-2.715 -31.557,-8.144l-5.089,-33.083l-4.072,0c-3.054,12.215 -9.162,22.225 -18.323,30.029c-4.751,4.072 -11.791,7.72 -21.123,10.943c-9.331,3.224 -19.935,4.836 -31.811,4.836Z" style="fill:#fff;fill-rule:nonzero;"/><path d="M1213.91,133.861l0,250.925c0,3.732 -9.756,6.701 -29.266,8.907c-19.511,2.205 -39.531,3.308 -60.06,3.308c-20.528,0 -33.762,-0.933 -39.7,-2.799c-5.938,-1.867 -8.907,-5.005 -8.907,-9.416l0,-241.764c0,-7.465 9.586,-14.845 28.757,-22.14c19.172,-7.296 40.125,-10.943 62.859,-10.943c30.878,0 46.317,7.974 46.317,23.922Zm-69.221,-133.861c22.395,0 39.955,3.308 52.679,9.925c12.724,6.617 19.087,18.578 19.087,35.883c0,30.538 -23.753,45.808 -71.257,45.808c-47.504,0 -71.257,-15.27 -71.257,-45.808c0,-30.539 23.583,-45.808 70.748,-45.808Z" style="fill:#fff;fill-rule:nonzero;"/><path d="M1332.5,401.582c-12.555,0 -24.261,-1.867 -35.119,-5.599c-10.858,-3.733 -19.766,-8.313 -26.722,-13.742c-6.956,-5.429 -12.978,-12.725 -18.068,-21.886c-5.09,-9.162 -8.992,-17.899 -11.707,-26.213c-2.714,-8.313 -4.75,-18.577 -6.107,-30.793c-2.036,-17.983 -3.054,-38.512 -3.054,-61.586c0,-47.165 8.652,-83.047 25.958,-107.648c17.305,-24.6 41.057,-36.901 71.256,-36.901c30.878,0 53.273,7.296 67.185,21.886c3.054,3.393 5.429,7.465 7.126,12.216l4.071,0l-6.107,-35.12l0,-63.622c0,-7.465 9.501,-14.76 28.502,-21.886c19.002,-7.125 39.531,-10.688 61.586,-10.688c23.074,0 37.834,4.411 44.281,13.233c2.375,3.394 3.563,6.787 3.563,10.18l0,361.373c0,3.732 -9.416,6.701 -28.248,8.907c-18.832,2.205 -36.986,3.308 -54.46,3.308c-17.475,0 -28.673,-0.594 -33.593,-1.781c-4.92,-1.188 -7.974,-2.461 -9.161,-3.818c-1.188,-1.357 -1.952,-3.563 -2.291,-6.616l-4.072,-29.012l-4.071,0c-3.054,11.876 -9.162,21.886 -18.324,30.029c-11.536,10.519 -29.011,15.779 -52.424,15.779Zm57.005,-74.311c5.429,0 9.501,-3.393 12.216,-10.179l0,-135.897c0,-3.393 -1.782,-6.023 -5.345,-7.889c-3.562,-1.866 -6.701,-2.799 -9.416,-2.799c-11.536,0 -17.305,26.467 -17.305,79.4c0,28.163 1.612,48.098 4.835,59.805c3.224,11.706 8.229,17.559 15.015,17.559Z" style="fill:#fff;fill-rule:nonzero;"/><path d="M1804.32,342.541l-2.545,28.502c-0.678,9.84 -5.853,16.627 -15.523,20.359c-9.671,3.733 -27.061,5.599 -52.17,5.599c-25.11,0 -46.063,-2.29 -62.859,-6.871c-16.796,-4.581 -25.194,-10.434 -25.194,-17.56c0,-8.144 15.1,-60.144 45.299,-156.001c30.199,-95.857 47.504,-151.081 51.915,-165.671c1.697,-4.412 15.354,-8.059 40.973,-10.943c25.618,-2.885 53.103,-4.327 82.454,-4.327c29.351,0 45.553,5.09 48.607,15.27c64.131,213.091 96.196,321.333 96.196,324.726c0,3.393 -2.036,6.786 -6.107,10.179c-9.501,7.465 -28.333,11.198 -56.497,11.198c-60.059,0 -90.767,-7.126 -92.124,-21.377l-3.563,-33.083l-48.862,0Zm12.683,-197.148c4.33,-35.484 47.139,52.205 47.139,70.862c0,18.657 -15.661,33.804 -34.952,33.804c-19.291,0 -34.953,-15.147 -34.953,-33.804c0,-18.657 18.374,-34.862 22.766,-70.862Z" style="fill:#fff;"/><path d="M2157.55,401.582c-56.326,0 -97.553,-5.429 -123.681,-16.288c-13.233,-5.768 -19.85,-11.367 -19.85,-16.796c0,-13.912 4.072,-30.199 12.216,-48.861c8.143,-18.663 15.269,-27.994 21.377,-27.994c3.393,0 14.845,3.732 34.355,11.197c19.511,7.465 35.968,11.198 49.371,11.198c13.403,0 22.225,-0.848 26.467,-2.545c4.241,-1.697 6.362,-5.005 6.362,-9.925c0,-4.92 -3.393,-8.822 -10.18,-11.706c-6.786,-2.885 -15.269,-4.836 -25.448,-5.854c-10.18,-1.018 -21.123,-3.054 -32.829,-6.107c-11.707,-3.054 -22.65,-6.956 -32.829,-11.707c-10.18,-4.75 -18.663,-12.639 -25.449,-23.667c-6.786,-11.028 -10.179,-22.904 -10.179,-35.628c0,-12.725 0.339,-22.226 1.018,-28.503c0.678,-6.277 3.478,-15.1 8.398,-26.467c4.92,-11.367 11.876,-20.613 20.868,-27.739c8.992,-7.126 22.904,-13.573 41.736,-19.341c18.832,-5.768 39.954,-8.653 63.367,-8.653c23.413,0 43.009,0.764 58.787,2.291c15.778,1.527 28.163,3.478 37.155,5.853c8.992,2.375 16.372,5.09 22.14,8.144c9.841,5.089 14.761,10.688 14.761,16.796c0,13.233 -4.751,28.502 -14.252,45.808c-9.5,17.305 -17.05,25.957 -22.649,25.957c-5.599,0 -17.729,-2.969 -36.392,-8.907c-18.662,-5.938 -32.405,-8.907 -41.227,-8.907c-14.251,0 -21.377,4.072 -21.377,12.216c0,5.089 4.835,8.907 14.506,11.452c9.671,2.544 21.292,5.174 34.865,7.889c13.573,2.714 27.23,6.532 40.972,11.452c13.743,4.92 25.449,13.827 35.12,26.721c9.67,12.894 14.506,29.181 14.506,48.861c0,66.507 -47.335,99.76 -142.005,99.76Z" style="fill:#fff;fill-rule:nonzero;"/><path d="M2453.26,401.582c-56.327,0 -97.554,-5.429 -123.681,-16.288c-13.233,-5.768 -19.85,-11.367 -19.85,-16.796c0,-13.912 4.072,-30.199 12.215,-48.861c8.144,-18.663 15.27,-27.994 21.377,-27.994c3.394,0 14.846,3.732 34.356,11.197c19.511,7.465 35.968,11.198 49.371,11.198c13.403,0 22.225,-0.848 26.467,-2.545c4.241,-1.697 6.362,-5.005 6.362,-9.925c0,-4.92 -3.393,-8.822 -10.18,-11.706c-6.786,-2.885 -15.269,-4.836 -25.448,-5.854c-10.18,-1.018 -21.123,-3.054 -32.829,-6.107c-11.707,-3.054 -22.65,-6.956 -32.829,-11.707c-10.18,-4.75 -18.663,-12.639 -25.449,-23.667c-6.786,-11.028 -10.18,-22.904 -10.18,-35.628c0,-12.725 0.34,-22.226 1.018,-28.503c0.679,-6.277 3.478,-15.1 8.398,-26.467c4.921,-11.367 11.877,-20.613 20.868,-27.739c8.992,-7.126 22.904,-13.573 41.736,-19.341c18.833,-5.768 39.955,-8.653 63.368,-8.653c23.413,0 43.008,0.764 58.787,2.291c15.778,1.527 28.163,3.478 37.155,5.853c8.992,2.375 16.372,5.09 22.14,8.144c9.84,5.089 14.76,10.688 14.76,16.796c0,13.233 -4.75,28.502 -14.251,45.808c-9.501,17.305 -17.051,25.957 -22.649,25.957c-5.599,0 -17.73,-2.969 -36.392,-8.907c-18.662,-5.938 -32.405,-8.907 -41.227,-8.907c-14.251,0 -21.377,4.072 -21.377,12.216c0,5.089 4.835,8.907 14.506,11.452c9.67,2.544 21.292,5.174 34.865,7.889c13.572,2.714 27.23,6.532 40.972,11.452c13.743,4.92 25.449,13.827 35.119,26.721c9.671,12.894 14.506,29.181 14.506,48.861c0,66.507 -47.334,99.76 -142.004,99.76Z" style="fill:#fff;fill-rule:nonzero;"/><path d="M2744.4,281.972c0,22.056 10.519,33.084 31.557,33.084c12.215,0 28.163,-4.157 47.843,-12.47c19.681,-8.313 30.03,-12.47 31.048,-12.47c6.447,0 14.93,9.671 25.449,29.012c10.518,19.341 15.778,33.592 15.778,42.754c0,13.233 -13.573,23.243 -40.718,30.029c-27.146,6.787 -53.697,10.18 -79.655,10.18c-25.958,0 -47.674,-2.036 -65.149,-6.108c-17.475,-4.072 -31.726,-9.246 -42.754,-15.524c-11.027,-6.277 -20.698,-13.997 -29.011,-23.158c-8.314,-9.162 -14.506,-17.899 -18.578,-26.212c-4.072,-8.314 -7.295,-17.56 -9.67,-27.74c-3.394,-14.93 -5.09,-30.368 -5.09,-46.316c0,-61.756 16.117,-104.34 48.352,-127.753c15.948,-11.876 33.763,-20.19 53.443,-24.94c19.68,-4.75 42.924,-7.126 69.73,-7.126c85.847,0 128.77,29.86 128.77,89.58c0,63.452 -48.183,95.178 -144.549,95.178l-16.796,0Zm-1.018,-74.31l0,33.592c9.84,0 17.899,-3.902 24.177,-11.706c6.277,-7.804 9.416,-17.305 9.416,-28.503c0,-20.359 -5.26,-30.538 -15.779,-30.538c-11.876,0 -17.814,12.385 -17.814,37.155Z" style="fill:#fff;fill-rule:nonzero;"/><path d="M3121.04,392.42c-6.108,5.769 -20.02,8.653 -41.736,8.653c-21.716,0 -39.7,-1.442 -53.951,-4.327c-14.252,-2.884 -27.824,-8.567 -40.718,-17.05c-24.771,-16.627 -37.156,-51.237 -37.156,-103.831l0,-79.4l-25.448,0c-3.733,0 -6.956,-3.903 -9.671,-11.707c-2.714,-7.804 -4.072,-18.493 -4.072,-32.065c0,-13.573 2.121,-25.534 6.362,-35.883c4.242,-10.349 9.756,-15.524 16.542,-15.524l16.287,0l0,-61.586c0,-10.519 10.265,-19.002 30.793,-25.449c20.529,-6.447 40.634,-9.67 60.314,-9.67c30.878,0 46.317,7.634 46.317,22.904l0,73.801l37.664,0c8.822,0 13.233,12.725 13.233,38.173c0,16.627 -1.951,30.284 -5.853,40.973c-3.902,10.688 -8.907,16.033 -15.015,16.033l-30.029,0l0,93.142c0,9.162 3.902,15.693 11.706,19.596c7.804,3.902 14.676,5.853 20.614,5.853c5.938,0 9.585,2.884 10.943,8.652c1.357,5.769 2.036,14.421 2.036,25.958c0,22.734 -3.054,36.986 -9.162,42.754Z" style="fill:#fff;fill-rule:nonzero;"/><path d="M3289.51,401.582c-56.327,0 -97.554,-5.429 -123.681,-16.288c-13.233,-5.768 -19.85,-11.367 -19.85,-16.796c0,-13.912 4.072,-30.199 12.215,-48.861c8.144,-18.663 15.27,-27.994 21.377,-27.994c3.393,0 14.845,3.732 34.356,11.197c19.511,7.465 35.968,11.198 49.371,11.198c13.403,0 22.225,-0.848 26.466,-2.545c4.242,-1.697 6.363,-5.005 6.363,-9.925c0,-4.92 -3.394,-8.822 -10.18,-11.706c-6.786,-2.885 -15.269,-4.836 -25.449,-5.854c-10.179,-1.018 -21.122,-3.054 -32.829,-6.107c-11.706,-3.054 -22.649,-6.956 -32.829,-11.707c-10.179,-4.75 -18.662,-12.639 -25.448,-23.667c-6.787,-11.028 -10.18,-22.904 -10.18,-35.628c0,-12.725 0.34,-22.226 1.018,-28.503c0.679,-6.277 3.478,-15.1 8.398,-26.467c4.92,-11.367 11.876,-20.613 20.868,-27.739c8.992,-7.126 22.904,-13.573 41.736,-19.341c18.832,-5.768 39.955,-8.653 63.368,-8.653c23.413,0 43.008,0.764 58.786,2.291c15.779,1.527 28.164,3.478 37.156,5.853c8.991,2.375 16.372,5.09 22.14,8.144c9.84,5.089 14.76,10.688 14.76,16.796c0,13.233 -4.75,28.502 -14.251,45.808c-9.501,17.305 -17.051,25.957 -22.649,25.957c-5.599,0 -17.73,-2.969 -36.392,-8.907c-18.663,-5.938 -32.405,-8.907 -41.227,-8.907c-14.252,0 -21.377,4.072 -21.377,12.216c0,5.089 4.835,8.907 14.506,11.452c9.67,2.544 21.292,5.174 34.864,7.889c13.573,2.714 27.231,6.532 40.973,11.452c13.742,4.92 25.449,13.827 35.119,26.721c9.671,12.894 14.506,29.181 14.506,48.861c0,66.507 -47.335,99.76 -142.004,99.76Z" style="fill:#fff;fill-rule:nonzero;"/></g></svg>