<?xml version="1.0" encoding="UTF-8" standalone="no"?><!DOCTYPE svg PUBLIC "-//W3C//DTD SVG 1.1//EN" "http://www.w3.org/Graphics/SVG/1.1/DTD/svg11.dtd"><svg width="100%" height="100%" viewBox="0 0 1215 700" version="1.1" xmlns="http://www.w3.org/2000/svg" xmlns:xlink="http://www.w3.org/1999/xlink" xml:space="preserve" xmlns:serif="http://www.serif.com/" style="fill-rule:evenodd;clip-rule:evenodd;stroke-linejoin:round;stroke-miterlimit:2;"><g><path d="M82.607,699.209c-32.781,0 -54.744,-1.803 -65.889,-5.409c-11.145,-3.605 -16.718,-9.67 -16.718,-18.193l0,-611.685c0,-14.423 19.013,-28.683 57.038,-42.779c38.026,-14.095 80.64,-21.143 127.844,-21.143c41.959,0 69.495,8.851 82.607,26.552c4.59,6.556 6.884,13.112 6.884,19.669l0,435.653c79.985,-5.245 140.301,-7.867 180.949,-7.867c13.768,0 20.652,21.799 20.652,65.397c0,43.598 -2.951,81.132 -8.851,112.601c-5.901,31.47 -13.768,47.204 -23.602,47.204l-360.914,0Z" style="fill:#fff;fill-rule:nonzero;"/><path d="M813.817,593.984l-4.917,55.071c-1.312,19.013 -11.31,32.125 -29.995,39.337c-18.685,7.211 -52.285,10.817 -100.8,10.817c-48.515,0 -88.999,-4.425 -121.452,-13.276c-32.452,-8.851 -48.679,-20.16 -48.679,-33.928c0,-15.734 29.175,-116.207 87.524,-301.417c58.35,-185.21 91.786,-291.911 100.309,-320.102c3.278,-8.523 29.666,-15.571 79.165,-21.144c49.498,-5.572 102.603,-8.359 159.313,-8.359c56.711,0 88.016,9.835 93.917,29.503c123.91,411.724 185.865,620.864 185.865,627.42c0,6.556 -3.933,13.112 -11.801,19.668c-18.357,14.423 -54.743,21.635 -109.159,21.635c-116.043,0 -175.376,-13.768 -177.998,-41.303l-6.884,-63.922l-94.408,0Zm24.505,-380.919c8.365,-68.56 91.08,75.362 91.08,136.916c0,36.048 -30.261,65.315 -67.534,65.315c-37.273,0 -67.534,-29.267 -67.534,-65.315c0,-36.048 35.501,-67.358 43.988,-136.916Z" style="fill:#fff;"/></g></svg>